<?xml version="1.0" encoding="utf-8"?>
<!-- Generator: Adobe Illustrator 27.6.1, SVG Export Plug-In . SVG Version: 6.00 Build 0)  -->
<svg version="1.1" baseProfile="tiny" id="Capa_1" xmlns="http://www.w3.org/2000/svg" xmlns:xlink="http://www.w3.org/1999/xlink"
	 x="0px" y="0px" viewBox="0 0 100 100" overflow="visible" xml:space="preserve">
<g>
	<g>
		<path id="Trazado_6129_2_" fill="#EB5B25" d="M22.48,73.4c0.94,0,1.76-0.82,1.76-1.76c0-0.47-0.23-0.94-0.47-1.29l-1.17-1.17
			h10.43c2.58,0,4.57,2.11,4.57,4.57s-1.99,4.57-4.57,4.57h-6.09c-0.94,0-1.76,0.82-1.76,1.76s0.82,1.76,1.76,1.76h6.09
			c4.45,0.12,8.2-3.28,8.32-7.73c0.12-4.45-3.28-8.2-7.73-8.32c-0.23,0-0.35,0-0.59,0H22.59l1.17-1.17c0.7-0.7,0.7-1.76,0-2.46
			c-0.7-0.7-1.76-0.7-2.46,0l0,0l-4.22,4.22c-0.7,0.7-0.7,1.76,0,2.46l4.22,4.22C21.54,73.28,22.01,73.4,22.48,73.4z"/>
		<path fill="#003A84" d="M93.24,40.01c0.94,0,1.76-0.82,1.76-1.76V26.07c0-0.59-0.35-1.17-0.94-1.52L59.03,5.33
			c-0.47-0.23-1.17-0.23-1.64,0l-13.24,7.26c-0.23,0.12-0.59,0.23-0.7,0.47l-21.09,11.6c-0.59,0.35-0.94,0.94-0.94,1.52V49.5
			C9.12,53.25,2.21,66.37,6.07,78.67c0.35,1.05,0.82,2.23,1.29,3.16c0.35,0.94,1.41,1.29,2.34,0.82c0.94-0.35,1.29-1.41,0.82-2.34
			v-0.12c-4.8-9.84-0.7-21.79,9.14-26.6c9.84-4.8,21.79-0.7,26.6,9.14c4.8,9.84,0.7,21.79-9.14,26.6c-5.51,2.69-11.95,2.69-17.46,0
			c-0.82-0.47-1.87-0.12-2.34,0.7c-0.47,0.82-0.12,1.87,0.7,2.34c0,0,0.12,0,0.12,0.12c11.6,5.62,25.66,0.82,31.28-10.78
			c0.12-0.23,0.23-0.47,0.35-0.7l7.62,4.1c0.47,0.23,1.17,0.23,1.64,0l35.03-18.98C94.65,65.78,95,65.2,95,64.61v-12.3
			c0-0.94-0.82-1.76-1.76-1.76c-0.94,0-1.76,0.82-1.76,1.76v11.13L59.97,80.78V46.33l10.43-5.74v9.02c0,0.94,0.82,1.76,1.76,1.76
			c0.35,0,0.59-0.12,0.82-0.23l6.24-3.41l0.06-0.01l0-0.02l1.21-0.66c0.59-0.35,0.94-0.94,0.94-1.52V34.5l10.08-5.51v9.26
			C91.49,39.19,92.31,40.01,93.24,40.01z M56.45,80.78l-5.51-3.05c0.59-1.99,0.82-4.1,0.82-6.21c0-6.09-2.46-12.07-6.8-16.4
			c-4.34-4.45-10.31-6.91-16.52-6.8c-1.17,0-2.34,0.12-3.51,0.23V28.99l31.52,17.34V80.78z M58.21,43.29l-31.4-17.22l10.31-5.62
			l31.4,17.22L58.21,43.29z M79.77,31.45L48.25,14.23l9.96-5.39l31.4,17.22L79.77,31.45z"/>
	</g>
</g>
</svg>
